<?xml version="1.0" encoding="UTF-8"?>
<svg width="107px" height="22px" viewBox="0 0 107 22" version="1.1" xmlns="http://www.w3.org/2000/svg" xmlns:xlink="http://www.w3.org/1999/xlink">
    <!-- Generator: sketchtool 40.1 (33804) - http://www.bohemiancoding.com/sketch -->
    <title>F598AEA9-571B-4BDB-8FEC-38F074CC2EC6</title>
    <desc>Created with sketchtool.</desc>
    <defs></defs>
    <g id="Personal" stroke="none" stroke-width="1" fill="none" fill-rule="evenodd">
        <g id="Site_Personal-Copy" transform="translate(-60.000000, -12.000000)" fill="#7AB72B">
            <g id="Header">
                <g id="logo_liqpay" transform="translate(60.000000, 12.000000)">
                    <polygon id="Shape" points="86.9547861 1.77262293 94.3504229 10.3403775 86.9547861 18.9094274 89.0061259 20.6791964 97.9295835 10.3403775 89.0061259 0.000910899696"></polygon>
                    <polygon id="Shape" points="95.9493035 1.77262293 103.344617 10.3403775 95.9493035 18.9094274 97.9999958 20.6791964 106.923777 10.3403775 97.9999958 0.000910899696"></polygon>
                    <path d="M9.24568572,18.2702718 C9.24568572,18.4533859 9.23654857,18.6068499 9.21827428,18.7303379 C9.19967369,18.8541517 9.16997797,18.9593934 9.12886088,19.0463889 C9.08741743,19.1337102 9.03716313,19.1975721 8.97744546,19.2386262 C8.91772771,19.280006 8.8469149,19.300533 8.76435437,19.300533 L0.894994994,19.300533 C0.68386186,19.300533 0.484476477,19.2298288 0.296512512,19.0877688 C0.108222222,18.9457087 0.0142402401,18.6961261 0.0142402401,18.339021 L0.0142402401,1.88286186 C0.0142402401,1.80955105 0.0325145146,1.74536336 0.0693893895,1.69062462 C0.105937938,1.63556006 0.170224224,1.59222523 0.261921922,1.55996847 C0.353619619,1.52803754 0.477297297,1.50066817 0.633281284,1.47753454 C0.789265269,1.45505255 0.977229228,1.44332282 1.1974995,1.44332282 C1.42658058,1.44332282 1.61682883,1.45505255 1.76824425,1.47753454 C1.91965966,1.50066817 2.04105306,1.52803754 2.13307708,1.55996847 C2.22444845,1.59222523 2.28906106,1.63556006 2.32560961,1.69062462 C2.36215816,1.74568919 2.38075876,1.80955105 2.38075876,1.88286186 L2.38075876,17.254021 L8.76435437,17.254021 C8.8469149,17.254021 8.91772771,17.274548 8.97744546,17.3159279 C9.03683683,17.3573078 9.08741743,17.4166081 9.12886088,17.4941546 C9.17030434,17.5720271 9.19999999,17.674988 9.21827428,17.8033634 C9.23654857,17.9317387 9.24568572,18.0871576 9.24568572,18.2702718 L9.24568572,18.2702718 L9.24568572,18.2702718 Z" id="Shape"></path>
                    <path d="M14.2257518,18.9434279 C14.2257518,19.0170646 14.2071512,19.0809264 14.1706026,19.1356651 C14.1337277,19.1907297 14.0694415,19.2340646 13.9780701,19.2663214 C13.886046,19.2985781 13.764979,19.3256216 13.6132373,19.3487553 C13.4618218,19.3712372 13.2715735,19.3829669 13.0424925,19.3829669 C12.8222222,19.3829669 12.6339319,19.3712372 12.4782743,19.3487553 C12.3222903,19.3256216 12.1986126,19.2982522 12.1069149,19.2663214 C12.0152172,19.2340646 11.950931,19.1907297 11.9143824,19.1356651 C11.8775075,19.0806006 11.8592332,19.0170646 11.8592332,18.9434279 L11.8592332,1.88286186 C11.8592332,1.80955105 11.8797918,1.74536336 11.9212352,1.69062462 C11.9626787,1.63556006 12.0312072,1.59222523 12.1274735,1.55996847 C12.2237397,1.52803754 12.3477437,1.50066817 12.4988328,1.47753454 C12.6502483,1.45505255 12.8310331,1.44332282 13.0424925,1.44332282 C13.2715735,1.44332282 13.4618218,1.45505255 13.6132373,1.47753454 C13.7646526,1.50066817 13.886046,1.52803754 13.9780701,1.55996847 C14.0694415,1.59222523 14.1340541,1.63556006 14.1706026,1.69062462 C14.2071512,1.74568919 14.2257518,1.80955105 14.2257518,1.88286186 L14.2257518,18.9434279 L14.2257518,18.9434279 L14.2257518,18.9434279 Z" id="Shape"></path>
                    <path d="M36.0592673,20.8664519 C36.0592673,21.0769354 36.0478459,21.2532072 36.025003,21.3949414 C36.0018338,21.5370015 35.9675696,21.6468048 35.9218839,21.7246772 C35.8758718,21.8022237 35.8256176,21.8553334 35.7704684,21.8827027 C35.7153194,21.9100721 35.6601702,21.9240826 35.6053474,21.9240826 C35.4219519,21.9240826 35.1259739,21.848491 34.7180661,21.6976336 C34.3101582,21.5467763 33.8399219,21.326518 33.30801,21.038488 C32.7760981,20.7498063 32.2073113,20.3995435 31.601976,19.9873738 C30.9966406,19.5752042 30.4095796,19.0946111 29.8411191,18.5449429 C29.3917678,18.8196141 28.822981,19.0577928 28.1350851,19.2591531 C27.4471892,19.4605135 26.6493213,19.5615195 25.7411552,19.5615195 C24.4019119,19.5615195 23.2441061,19.3643949 22.2674114,18.9707973 C21.2907167,18.5771997 20.4833854,18.0001622 19.8460701,17.2400105 C19.2084285,16.4798588 18.73395,15.5346382 18.421982,14.4036967 C18.110014,13.2727553 17.9543563,11.9746651 17.9543563,10.5094265 C17.9543563,9.09925229 18.1240461,7.82396997 18.4634254,6.6839054 C18.8028048,5.54384084 19.3118739,4.57320571 19.9906327,3.77167418 C20.6693914,2.97046846 21.5178398,2.35237688 22.5356516,1.9173994 C23.5537898,1.48242192 24.7412913,1.26477027 26.0988088,1.26477027 C27.3734395,1.26477027 28.495023,1.46189489 29.4625806,1.85549249 C30.4301382,2.24941592 31.2417117,2.82417268 31.8976276,3.57943694 C32.5532172,4.33502703 33.0462963,5.26688889 33.3765385,6.37469669 C33.7067808,7.48283033 33.8719019,8.7558318 33.8719019,10.1933754 C33.8719019,10.9352808 33.8281742,11.6449294 33.7410451,12.3226472 C33.6539159,13.0006907 33.5162062,13.6415901 33.3285686,14.245997 C33.1402783,14.8504039 32.904018,15.4088694 32.6201141,15.9217192 C32.3355576,16.4348949 32.0007467,16.896916 31.6156817,17.3090856 C32.284977,17.8584279 32.872038,18.2868889 33.3765385,18.593491 C33.8807127,18.9004189 34.2984104,19.1317552 34.6283263,19.2871742 C34.9585686,19.442919 35.215061,19.555003 35.3987828,19.6234265 C35.5818518,19.6921757 35.7195616,19.770048 35.8115856,19.8570436 C35.902957,19.9437132 35.9675696,20.067527 36.0041181,20.2278334 C36.0406667,20.3878138 36.0592673,20.6009039 36.0592673,20.8664519 L36.0592673,20.8664519 L36.0592673,20.8664519 Z M31.3817057,10.3582433 C31.3817057,9.35078979 31.2922923,8.41697296 31.1134655,7.55581531 C30.9346386,6.69498349 30.6363764,5.94656156 30.219005,5.3098979 C29.8016336,4.67356006 29.2442683,4.17667568 28.5475616,3.81957057 C27.8505285,3.46246547 26.9883744,3.28391292 25.9610991,3.28391292 C24.9338238,3.28391292 24.0716697,3.47386937 23.3746366,3.85410811 C22.6776036,4.23434685 22.1111011,4.74687087 21.6754555,5.39265766 C21.2398098,6.03811862 20.9278418,6.78686637 20.7398779,7.63857508 C20.5519139,8.49028381 20.4576056,9.39216967 20.4576056,10.3448844 C20.4576056,11.3888304 20.5447347,12.3480616 20.718993,13.2225781 C20.8932512,14.0970946 21.1866186,14.8552913 21.5994214,15.4961907 C22.0122242,16.1374159 22.5646947,16.6343003 23.2571591,16.986518 C23.9496237,17.3390615 24.8186306,17.5153334 25.8641802,17.5153334 C26.9005926,17.5153334 27.7718839,17.3230961 28.4780541,16.9386216 C29.1842242,16.5541471 29.7526847,16.034455 30.1840881,15.3795451 C30.6151652,14.724961 30.9222382,13.9644835 31.1059599,13.0994159 C31.290008,12.2333708 31.3817057,11.3197553 31.3817057,10.3582433 L31.3817057,10.3582433 L31.3817057,10.3582433 Z" id="Shape"></path>
                    <path d="M48.8538698,6.7318018 C48.8538698,7.62032883 48.7070231,8.42153453 48.4136556,9.13574474 C48.1199619,9.85028075 47.7006326,10.4592492 47.155015,10.9626502 C46.6093974,11.4663769 45.9394495,11.8554129 45.1461501,12.1300841 C44.3528509,12.4047552 43.4058519,12.5422538 42.3054795,12.5422538 L40.2829089,12.5422538 L40.2829089,18.9434279 C40.2829089,19.0170646 40.2623504,19.0809264 40.2209069,19.1356651 C40.1794634,19.1907297 40.1155035,19.2340646 40.0283744,19.2663214 C39.9412453,19.2985781 39.8221362,19.3256216 39.6707207,19.3487553 C39.5193053,19.3712372 39.3290571,19.3829669 39.099976,19.3829669 C38.8705686,19.3829669 38.6803203,19.3712372 38.5289049,19.3487553 C38.3774895,19.3256216 38.2557697,19.2982522 38.1640721,19.2663214 C38.0723744,19.2340646 38.0080881,19.1907297 37.9715396,19.1356651 C37.9346647,19.0806006 37.9163904,19.0170646 37.9163904,18.9434279 L37.9163904,2.54200751 C37.9163904,2.17577928 38.0126566,1.91479279 38.2051892,1.75904805 C38.3977217,1.6033033 38.6130971,1.52543093 38.8519679,1.52543093 L42.6628068,1.52543093 C43.0481982,1.52543093 43.4172733,1.54139639 43.7703584,1.57365315 C44.1234435,1.60590991 44.5404885,1.67433333 45.0221461,1.77957507 C45.5034775,1.88514264 45.9942723,2.08194144 46.4942042,2.3702973 C46.9938098,2.65865315 47.4180341,3.01380331 47.7668769,3.43477027 C48.1153934,3.85606306 48.3836336,4.34382432 48.5715976,4.89772823 C48.7595616,5.45228378 48.8538698,6.06353303 48.8538698,6.7318018 L48.8538698,6.7318018 L48.8538698,6.7318018 Z M46.3636737,6.92403904 C46.3636737,6.20070571 46.2282483,5.5962988 45.9577237,5.11049249 C45.6871992,4.62533784 45.3523884,4.26367117 44.9532913,4.02549249 C44.5545205,3.78731381 44.1417177,3.63645646 43.7152092,3.57226877 C43.2887007,3.50840691 42.8736136,3.47615015 42.469948,3.47615015 L40.2825826,3.47615015 L40.2825826,10.6052192 L42.4151251,10.6052192 C43.1307588,10.6052192 43.7243464,10.513988 44.1968669,10.3305481 C44.6690611,10.1477598 45.0658739,9.89361563 45.386979,9.56811561 C45.7080841,9.24326726 45.9508708,8.8539054 46.1163183,8.40068168 C46.2811131,7.94745795 46.3636737,7.45513513 46.3636737,6.92403904 L46.3636737,6.92403904 L46.3636737,6.92403904 Z" id="Shape"></path>
                    <path d="M65.8029329,18.4628348 C65.87603,18.664521 65.9151892,18.8267823 65.9197578,18.9505961 C65.924,19.0744099 65.8897357,19.1682478 65.8166386,19.2324354 C65.7432153,19.2962973 65.6218218,19.3373513 65.4521321,19.3559234 C65.2821161,19.3741697 65.0553193,19.3836186 64.7710891,19.3836186 C64.4868588,19.3836186 64.2597357,19.3767762 64.090046,19.3630916 C63.9203564,19.3494069 63.7917838,19.3262733 63.704981,19.2943423 C63.6175255,19.2624114 63.5535656,19.2187508 63.5124484,19.164012 C63.471005,19.1089475 63.4321722,19.0401982 63.3956237,18.9580901 L61.8684164,14.6311231 L54.4666827,14.6311231 L53.0083303,18.9030256 C52.9805926,18.9854595 52.9440441,19.0568153 52.898032,19.1157898 C52.85202,19.1754159 52.7857758,19.2259189 52.6986467,19.2669729 C52.6115176,19.308027 52.4875135,19.3376772 52.3272873,19.3562493 C52.1667347,19.3744955 51.9578859,19.3839445 51.7013934,19.3839445 C51.4354375,19.3839445 51.2174514,19.3722147 51.0480881,19.3497327 C50.8783984,19.3265991 50.7592893,19.2832643 50.6904344,19.2190766 C50.6219059,19.1552147 50.5892733,19.061051 50.5941682,18.9375631 C50.5987367,18.8137492 50.6375695,18.6511622 50.710993,18.4498018 L56.6817858,1.93857808 C56.7183344,1.8378979 56.7666306,1.75546396 56.826022,1.69127628 C56.8854134,1.62708859 56.9728689,1.57658558 57.0874094,1.54009309 C57.2019499,1.5036006 57.3487968,1.47818619 57.5276236,1.4645015 C57.7061241,1.45081682 57.9335736,1.44397448 58.2086667,1.44397448 C58.5020341,1.44397448 58.7451472,1.45081682 58.938006,1.4645015 C59.1305386,1.47818619 59.2865225,1.5036006 59.4056316,1.54009309 C59.5247407,1.57691141 59.6164384,1.62936937 59.6807247,1.69811862 C59.7446847,1.76686787 59.7952653,1.85158258 59.8321402,1.95226276 L65.8029329,18.4628348 L65.8029329,18.4628348 L65.8029329,18.4628348 Z M58.1398118,3.88831982 L58.1261061,3.88831982 L55.0583123,12.7481757 L61.2490491,12.7481757 L58.1398118,3.88831982 L58.1398118,3.88831982 L58.1398118,3.88831982 Z" id="Shape"></path>
                    <path d="M74.4424224,12.3910706 L74.4424224,18.9431021 C74.4424224,19.0167388 74.4241481,19.0806006 74.3875996,19.1353393 C74.351051,19.1904039 74.2870911,19.2337387 74.1960461,19.2659955 C74.105001,19.2982522 73.9816497,19.3252958 73.8266446,19.3484295 C73.6716396,19.3709114 73.4846547,19.3826411 73.266016,19.3826411 C73.0379139,19.3826411 72.8489709,19.3709114 72.6982082,19.3484295 C72.5477718,19.3252958 72.4244204,19.2979264 72.3288068,19.2659955 C72.2328668,19.2337387 72.166949,19.1904039 72.1304004,19.1353393 C72.0938519,19.0802747 72.0759039,19.0167388 72.0759039,18.9431021 L72.0759039,12.3910706 L67.0406887,2.36345496 C66.9395275,2.15297147 66.8775255,1.98810361 66.855009,1.86885135 C66.8318399,1.74992492 66.855009,1.65836787 66.9238638,1.59418018 C66.9923924,1.53031832 67.1163964,1.48926426 67.2952232,1.4706922 C67.4740501,1.45244595 67.7145525,1.442997 68.0173834,1.442997 C68.2924765,1.442997 68.5147047,1.45244595 68.6847207,1.4706922 C68.8544104,1.48926426 68.9895095,1.51435285 69.0906706,1.54628379 C69.1915055,1.57854054 69.2672132,1.62415616 69.3174674,1.68378228 C69.368048,1.7434084 69.416018,1.819 69.46203,1.91023123 L71.9244885,7.02015766 C72.1529169,7.50563814 72.3813453,8.01392643 72.6091212,8.54502253 C72.8368969,9.07611859 73.0695676,9.61177629 73.3068068,10.1519955 L73.3342182,10.1519955 C73.5437198,9.63002255 73.7600741,9.11065613 73.9839339,8.5929189 C74.2071411,8.07583333 74.4332853,7.56526426 74.6623664,7.06153753 L77.1385308,1.92424174 C77.1662681,1.83268469 77.2051011,1.75481231 77.255682,1.69062462 C77.305936,1.62676277 77.3744646,1.57854054 77.46192,1.54628379 C77.5490494,1.51435285 77.6704426,1.48926426 77.8264267,1.4706922 C77.9824108,1.45244595 78.1795116,1.442997 78.4180559,1.442997 C78.7482979,1.442997 79.0074014,1.45472673 79.1953657,1.47720871 C79.3833291,1.50034235 79.5138597,1.54367718 79.5876096,1.60786487 C79.6613595,1.67205255 79.68616,1.76360961 79.6633171,1.88253604 C79.6404743,2.00178829 79.5784723,2.16176877 79.4776374,2.36312913 L74.4424224,12.3910706 L74.4424224,12.3910706 L74.4424224,12.3910706 Z" id="Shape"></path>
                </g>
            </g>
        </g>
    </g>
</svg>