<svg version="1" xmlns="http://www.w3.org/2000/svg" width="346.667" height="346.667" viewBox="0 0 260.000000 260.000000"><path d="M112.7 3.6c-.1.1-2.7.5-5.7.8-3 .4-6.6.9-8 1.2-1.4.2-3.6.6-5 .9-30.4 5.7-56.3 19.8-68.9 37.4l-3.2 4.5.6 15.6c.3 8.6.7 16.5.9 17.7.2 1.1.7 4.4 1.1 7.3.4 2.9.9 6.2 1.1 7.4.2 1.2.6 3.8.9 6 .3 2.1.7 4.1.9 4.5.2.3.7 2.2 1 4.1.9 6.1 7.3 27.3 11.1 36.9 3 7.8 7.5 17.4 14.4 30.9 2.4 4.7 14 21.9 17.9 26.6 2 2.5 4.8 6 6.2 7.7 1.4 1.8 5.2 6.1 8.5 9.5 3.3 3.5 6.5 6.9 7.1 7.6 4.3 5.3 21.8 19.2 30.9 24.7l5.5 3.3 7.2-4.5c10.7-6.7 22-16.2 33.1-27.6 5.3-5.5 9.7-10.2 9.7-10.5 0-.2 1.5-1.9 3.3-3.9 3.3-3.6 12-15.9 18.3-25.7 3.3-5.1 14.3-26.9 17.7-35 5.3-12.4 12.4-37.9 14.6-52 2.7-17.6 3-20.9 3.5-37.2l.5-13.7-3.1-4.3C220.3 23.7 190.7 9.5 153 4.4c-4.3-.6-39.7-1.3-40.3-.8zM53 184c-1.1.7-1.2 1.2-.3 2.1 1.6 1.6 4.4.4 3.7-1.6-.7-1.7-1.3-1.8-3.4-.5zM204.4 184.1c-.3.6-.2 1.5.4 2.1 1.3 1.3 3.2.2 3.2-1.8 0-1.6-2.6-1.9-3.6-.3z"/></svg>